<?xml version="1.0" encoding="utf-8"?>
<!-- Generator: Adobe Illustrator 28.1.0, SVG Export Plug-In . SVG Version: 6.00 Build 0)  -->
<svg version="1.1" id="Layer_1" xmlns="http://www.w3.org/2000/svg" xmlns:xlink="http://www.w3.org/1999/xlink" x="0px" y="0px"
	 viewBox="0 0 1092.8 143" style="enable-background:new 0 0 1092.8 143;" xml:space="preserve">
<g id="CWK">
</g>
<polygon points="113.9,0 89.5,10.7 98.4,14.7 98.4,100.5 90.4,106.2 121.9,106.2 113.9,100.5 "/>
<path d="M190.4,98.4l-8.5-3.1V58.6c0-11.9-8.3-20-20.5-20c-9.7,0-36.1,10.7-36.1,21.9c0,4.1,2.7,7.1,6.6,7.1c10.3,0,5.7-17.2,13-22
	c2.6-1.7,5-2.3,8-2.3c8,0,13.8,6.5,13.8,15.8v6.2c-17.6,7.6-41,16.1-41,28.7c0,8,5.9,13.7,15.2,13.7c9.3,0,18.2-6.7,25.8-14.9v14.9
	L190.4,98.4z M151.1,99.5c-6.1,0-10.3-4.1-10.3-10.2c0-9.7,11.6-15.9,25.9-21.8v22.4C161.9,95.2,156.8,99.5,151.1,99.5z"/>
<path d="M234.5,38.7c-7.5,0-14.6,6.2-19.4,12.6V38.7l-24.4,10.7l9,3.7v47.4l-8.1,5.7h33l-9.5-5.7v-46c2.7-3.6,6.2-7.6,9.9-7.6
	c5.1,0,5.7,9,13.3,9c4.1,0,7.1-3.2,7.1-8C245.4,42.5,241,38.6,234.5,38.7z"/>
<path d="M283.7,96.8c-13.6,0-22.5-11.7-22.5-28.2c0-1.4,0-2.8,0.1-4.1H303v-1c0-14.9-10.5-24.9-25.8-24.9c-18.3,0-31.6,15-31.6,36.1
	c0,19.9,12.9,33,31.2,33c14.7,0,25.4-10.9,28.1-28.9C301.3,90.7,294.1,96.9,283.7,96.8z M277.3,40.7c6.5,0,11.3,7.7,11.3,16.5
	c0,3.2-1.2,5.3-4.4,5.3h-22.7C262.9,49.3,269.1,40.7,277.3,40.7z"/>
<path d="M506.2,98.4l-8.5-3.1V58.6c0-11.9-8.3-20-20.5-20c-9.7,0-36.1,10.7-36.1,21.9c0,4.1,2.7,7.1,6.6,7.1c10.3,0,5.7-17.2,13-22
	c2.6-1.7,5-2.3,8-2.3c8,0,13.8,6.5,13.8,15.8v6.2c-17.5,7.6-41,16.1-41,28.7c0,8,5.8,13.7,15.1,13.7s18.2-6.7,25.8-14.9v14.9
	L506.2,98.4z M466.8,99.5c-6.1,0-10.3-4.1-10.3-10.2c0-9.7,11.6-15.9,25.9-21.8v22.4C477.7,95.2,472.5,99.5,466.8,99.5z"/>
<polygon points="507.4,106.2 539.1,106.2 530.9,100.5 530.9,38.7 506.5,49.4 515.5,53.1 515.5,100.5 "/>
<rect x="513.7" y="8.8" width="17.4" height="17.6"/>
<path d="M590.5,98.4h-31.8c-4.5,0-7.6-2.5-7.6-6.2c0-2.9,2.1-6.2,5.2-8.8c4.5,2.5,9.8,4.1,15.6,4.1c15,0,27-10.7,27-24.1
	c0-6.3-2.3-11.8-6.3-16.2h13.9v-5.4h-15.3c-8.6,0-10.9-3.2-19.3-3.2c-15.3,0-27.4,11-27.4,24.9c0,7.7,4,14.5,10.4,18.9
	c-7.9,6-12.5,11.6-12.5,17.3c0,5.3,3.5,9.4,9.3,11.2v1.3c-8.3,2.1-15.3,7.1-15.3,13.7c0,9.8,12.3,17.1,28.5,17.1
	c18.4,0,42.4-14.9,42.4-31.7C607.3,103.1,600.4,98.4,590.5,98.4z M572,40.7c7.6,0,12.2,8.8,12.2,22.8s-4.2,22-12.2,22
	s-12.8-8.2-12.8-22C559.2,49.1,564,40.7,572,40.7z M574.1,134.9c-14.7,0.3-25.1-5.8-25.1-13.9c0-5.1,4.1-9,11.6-9h30.7
	c6.5,0,9.5,2.6,9.5,7C600.8,127.7,589.6,134.8,574.1,134.9z"/>
<path d="M674.3,57.9c0-11.6-7.6-19.3-18.2-19.3c-6.2,0-16.4,6.3-24.5,11.6V0l-24.5,10.7l9,4v85.8l-8,5.7h32.1l-8.8-5.7V52.1
	C637,48.8,643,46,647.8,46c6.1,0,11,5.6,11,12.8v41.7l-8.6,5.7h32l-7.9-5.8V57.9z"/>
<path d="M718.5,99.7c-7.1,0-11.7-4.1-11.7-10.2V47.1h21.8v-5.4h-21.8v-20l-15.6,7.1v8.9l-10.3,8.4l12,4.4l-1.7,39.9
	c-0.4,10.9,7,17.3,18.3,17.3c9.2,0,18.8-6.5,23.8-15.7C729.9,96.6,723.9,99.7,718.5,99.7z"/>
<path d="M889.1,96.8c-13.6,0-22.5-11.7-22.5-28.2c0-1.4,0-2.8,0.1-4.1h41.7v-1c0-14.9-10.5-24.9-25.8-24.9
	c-18.3,0-31.6,15-31.6,36.1c0,19.9,12.9,33,31.2,33c14.7,0,25.4-10.9,28.1-28.9C906.7,90.7,899.4,96.9,889.1,96.8z M882.6,40.7
	c6.5,0,11.3,7.7,11.3,16.5c0,3.2-1.2,5.3-4.4,5.3h-22.7C868.2,49.3,874.4,40.7,882.6,40.7z"/>
<polygon points="934.2,0 909.9,10.7 918.8,14.7 918.8,100.5 910.8,106.2 942.2,106.2 934.2,100.5 "/>
<polygon points="967.2,0 942.9,10.7 951.8,14.7 951.8,100.5 943.8,106.2 975.2,106.2 967.2,100.5 "/>
<path d="M1015.6,96.8c-13.6,0-22.5-11.7-22.5-28.2c0-1.4,0-2.8,0.1-4.1h41.7v-1c0-14.9-10.5-24.9-25.8-24.9
	c-18.3,0-31.6,15-31.6,36.1c0,19.9,12.9,33,31.2,33c14.7,0,25.4-10.9,28.1-28.9C1033.2,90.7,1025.9,96.9,1015.6,96.8z M1009.1,40.7
	c6.5,0,11.3,7.7,11.3,16.5c0,3.2-1.2,5.3-4.4,5.3h-22.7C994.8,49.3,1000.9,40.7,1009.1,40.7z"/>
<path d="M1081.8,38.7c-7.6,0-14.6,6.2-19.4,12.6V38.7l-24.3,10.7l9,3.7v47.4l-8.1,5.7h33l-9.5-5.7v-46c2.7-3.6,6.2-7.6,9.9-7.6
	c5.1,0,5.7,9,13.3,9c4.1,0,7.1-3.2,7.1-8C1092.8,42.5,1088.4,38.6,1081.8,38.7z"/>
<path d="M51,8.8c11.3,0,24.1,2.6,31.7,6.3v2.2l3.5,24.9C77,22,65.8,11.5,51,11.6c-20.2,0-33.5,18.8-33.5,46.1s13.3,47.2,33.9,47.2
	C66.2,105,77.7,94,87.6,71.6l-4.2,27.6v2.2c-7.6,3.9-20.5,6.4-32,6.3C23.3,107.7,0,85.3,0,57.7S22.9,8.8,51,8.8z"/>
<path d="M426,10.8l14.2,7.9l-24.1,64.4h-1.8l-27.7-64l14.2-8.2l0.2,0h-0.2l0.2-0.1h-45l0.4,0.1h-50.7l11.5,8.2l41,91.2l23.3-61.6
	l27,61.6l35.3-91.6l12.5-7.9H426z M365.4,83.1h-1.8l-28-69.6H366l0,0l13.7,31.1L365.4,83.1z"/>
<path d="M780.8,55.4v43.7l10,7.1h-36.1l9.9-7.1V17.8l-9.9-7h37l-11,7v35.7h5.2l43.4-42.6h19.2l-53.3,37.5l59.5,57.8h-22.5
	L780.8,55.4L780.8,55.4z" />
</svg>
