<?xml version="1.0" encoding="UTF-8"?>
<svg id="Layer_1" data-name="Layer 1" xmlns="http://www.w3.org/2000/svg" viewBox="0 0 1092.8 143">
  <defs>
    <style>
      .cls-1 {
        fill: #e6f5ff;
        stroke-width: 0px;
      }
    </style>
  </defs>
  <polygon class="cls-1" points="113.9 0 89.5 10.7 98.4 14.7 98.4 100.5 90.4 106.2 121.9 106.2 113.9 100.5 113.9 0"/>
  <path class="cls-1" d="M190.4,98.4l-8.5-3.1v-36.7c0-11.9-8.3-20-20.5-20-9.7,0-36.1,10.7-36.1,21.9,0,4.1,2.7,7.1,6.6,7.1,10.3,0,5.7-17.2,13-22,2.6-1.7,5-2.3,8-2.3,8,0,13.8,6.5,13.8,15.8v6.2c-17.6,7.6-41,16.1-41,28.7,0,8,5.9,13.7,15.2,13.7s18.2-6.7,25.8-14.9v14.9l23.7-9.3ZM151.1,99.5c-6.1,0-10.3-4.1-10.3-10.2,0-9.7,11.6-15.9,25.9-21.8v22.4c-4.8,5.3-9.9,9.6-15.6,9.6Z"/>
  <path class="cls-1" d="M234.5,38.7c-7.5,0-14.6,6.2-19.4,12.6v-12.6l-24.4,10.7,9,3.7v47.4l-8.1,5.7h33l-9.5-5.7v-46c2.7-3.6,6.2-7.6,9.9-7.6,5.1,0,5.7,9,13.3,9,4.1,0,7.1-3.2,7.1-8,0-5.4-4.4-9.3-10.9-9.2Z"/>
  <path class="cls-1" d="M283.7,96.8c-13.6,0-22.5-11.7-22.5-28.2,0-1.4,0-2.8.1-4.1h41.7v-1c0-14.9-10.5-24.9-25.8-24.9-18.3,0-31.6,15-31.6,36.1,0,19.9,12.9,33,31.2,33,14.7,0,25.4-10.9,28.1-28.9-3.6,11.9-10.8,18.1-21.2,18ZM277.3,40.7c6.5,0,11.3,7.7,11.3,16.5,0,3.2-1.2,5.3-4.4,5.3h-22.7c1.4-13.2,7.6-21.8,15.8-21.8Z"/>
  <path class="cls-1" d="M506.2,98.4l-8.5-3.1v-36.7c0-11.9-8.3-20-20.5-20-9.7,0-36.1,10.7-36.1,21.9,0,4.1,2.7,7.1,6.6,7.1,10.3,0,5.7-17.2,13-22,2.6-1.7,5-2.3,8-2.3,8,0,13.8,6.5,13.8,15.8v6.2c-17.5,7.6-41,16.1-41,28.7,0,8,5.8,13.7,15.1,13.7s18.2-6.7,25.8-14.9v14.9l23.8-9.3ZM466.8,99.5c-6.1,0-10.3-4.1-10.3-10.2,0-9.7,11.6-15.9,25.9-21.8v22.4c-4.7,5.3-9.9,9.6-15.6,9.6Z"/>
  <polygon class="cls-1" points="507.4 106.2 539.1 106.2 530.9 100.5 530.9 38.7 506.5 49.4 515.5 53.1 515.5 100.5 507.4 106.2"/>
  <rect class="cls-1" x="513.7" y="8.8" width="17.4" height="17.6"/>
  <path class="cls-1" d="M590.5,98.4h-31.8c-4.5,0-7.6-2.5-7.6-6.2,0-2.9,2.1-6.2,5.2-8.8,4.5,2.5,9.8,4.1,15.6,4.1,15,0,27-10.7,27-24.1,0-6.3-2.3-11.8-6.3-16.2h13.9v-5.4h-15.3c-8.6,0-10.9-3.2-19.3-3.2-15.3,0-27.4,11-27.4,24.9,0,7.7,4,14.5,10.4,18.9-7.9,6-12.5,11.6-12.5,17.3,0,5.3,3.5,9.4,9.3,11.2v1.3c-8.3,2.1-15.3,7.1-15.3,13.7,0,9.8,12.3,17.1,28.5,17.1,18.4,0,42.4-14.9,42.4-31.7,0-8.2-6.9-12.9-16.8-12.9ZM572,40.7c7.6,0,12.2,8.8,12.2,22.8s-4.2,22-12.2,22-12.8-8.2-12.8-22,4.8-22.8,12.8-22.8ZM574.1,134.9c-14.7.3-25.1-5.8-25.1-13.9,0-5.1,4.1-9,11.6-9h30.7c6.5,0,9.5,2.6,9.5,7,0,8.7-11.2,15.8-26.7,15.9Z"/>
  <path class="cls-1" d="M674.3,57.9c0-11.6-7.6-19.3-18.2-19.3-6.2,0-16.4,6.3-24.5,11.6V0l-24.5,10.7,9,4v85.8l-8,5.7h32.1l-8.8-5.7v-48.4c5.6-3.3,11.6-6.1,16.4-6.1,6.1,0,11,5.6,11,12.8v41.7l-8.6,5.7h32l-7.9-5.8v-42.5Z"/>
  <path class="cls-1" d="M718.5,99.7c-7.1,0-11.7-4.1-11.7-10.2v-42.4h21.8v-5.4h-21.8v-20l-15.6,7.1v8.9l-10.3,8.4,12,4.4-1.7,39.9c-.4,10.9,7,17.3,18.3,17.3,9.2,0,18.8-6.5,23.8-15.7-3.4,4.6-9.4,7.7-14.8,7.7Z"/>
  <path class="cls-1" d="M889.1,96.8c-13.6,0-22.5-11.7-22.5-28.2,0-1.4,0-2.8.1-4.1h41.7v-1c0-14.9-10.5-24.9-25.8-24.9-18.3,0-31.6,15-31.6,36.1,0,19.9,12.9,33,31.2,33,14.7,0,25.4-10.9,28.1-28.9-3.6,11.9-10.9,18.1-21.2,18ZM882.6,40.7c6.5,0,11.3,7.7,11.3,16.5,0,3.2-1.2,5.3-4.4,5.3h-22.7c1.4-13.2,7.6-21.8,15.8-21.8Z"/>
  <polygon class="cls-1" points="934.2 0 909.9 10.7 918.8 14.7 918.8 100.5 910.8 106.2 942.2 106.2 934.2 100.5 934.2 0"/>
  <polygon class="cls-1" points="967.2 0 942.9 10.7 951.8 14.7 951.8 100.5 943.8 106.2 975.2 106.2 967.2 100.5 967.2 0"/>
  <path class="cls-1" d="M1015.6,96.8c-13.6,0-22.5-11.7-22.5-28.2,0-1.4,0-2.8.1-4.1h41.7v-1c0-14.9-10.5-24.9-25.8-24.9-18.3,0-31.6,15-31.6,36.1,0,19.9,12.9,33,31.2,33,14.7,0,25.4-10.9,28.1-28.9-3.6,11.9-10.9,18.1-21.2,18ZM1009.1,40.7c6.5,0,11.3,7.7,11.3,16.5,0,3.2-1.2,5.3-4.4,5.3h-22.7c1.5-13.2,7.6-21.8,15.8-21.8Z"/>
  <path class="cls-1" d="M1081.8,38.7c-7.6,0-14.6,6.2-19.4,12.6v-12.6l-24.3,10.7,9,3.7v47.4l-8.1,5.7h33l-9.5-5.7v-46c2.7-3.6,6.2-7.6,9.9-7.6,5.1,0,5.7,9,13.3,9,4.1,0,7.1-3.2,7.1-8,0-5.4-4.4-9.3-11-9.2Z"/>
  <path class="cls-1" d="M51,8.8c11.3,0,24.1,2.6,31.7,6.3v2.2l3.5,24.9c-9.2-20.2-20.4-30.7-35.2-30.6-20.2,0-33.5,18.8-33.5,46.1s13.3,47.2,33.9,47.2c14.8.1,26.3-10.9,36.2-33.3l-4.2,27.6v2.2c-7.6,3.9-20.5,6.4-32,6.3C23.3,107.7,0,85.3,0,57.7S22.9,8.8,51,8.8Z"/>
  <path class="cls-1" d="M426,10.8l14.2,7.9-24.1,64.4h-1.8l-27.7-64,14.2-8.2h.2-.2l.2-.1h-45l.4.1h-50.7l11.5,8.2,41,91.2,23.3-61.6,27,61.6,35.3-91.6,12.5-7.9s-30.3,0-30.3,0ZM365.4,83.1h-1.8l-28-69.6h30.4l13.7,31.1-14.3,38.5Z"/>
  <path class="cls-1" d="M780.8,55.4v43.7l10,7.1h-36.1l9.9-7.1V17.8l-9.9-7h37l-11,7v35.7h5.2l43.4-42.6h19.2l-53.3,37.5,59.5,57.8h-22.5l-51.4-50.8h0Z"/>
</svg>